/* XPM */
static char *result[] = {
/* columns rows colors chars-per-pixel */
"64 64 6 1 ",
"  c black",
". c DimGray",
"X c SaddleBrown",
"o c #A37343",
"O c gray72",
"+ c #00FF00",
/* pixels */
"++++++++++++++++++++++++++++++++++++++++++++++++++++++++++++++++",
"++++++++++++++++++++++++++++++++++++++++++++++++++++++++++++++++",
"++++++++++++++++++++++++++++++++++++++++++++++++++++++++++++++++",
"++++++++++++++++++++++++++++++++++++++++++++++++++++++++++++++++",
"++++++++++++++++++++++++++++++++++++++++++++++++++++++++++++++++",
"++++++++++++++++++++++++++++++++++++++++++++++++++++++++++++++++",
"++++++++++++++++++++++++++++++++++++++++++++++++++++++++++++++++",
"++++++++++++++++++++++++++++++++++++++++++++++++++++++++++++++++",
"++++++++++++++++++++++++++++++++++++++++++++++++++++++++++++++++",
"++++++++++++++++++++++++++++++++++++++++++++++++++++++++++++++++",
"++++++++++++++++++++++++++++++++++++++++++++++++++++++++++++++++",
"++++++++++++++++++++++++++++++++++++++++++++++++++++++++++++++++",
"++++++++++++++++++++++++++++++++++++++++++++++++++++++++++++++++",
"+++++++++++++++++++++++++++++++++       ++++++++++++++++++++++++",
"++++++++++++++++++++++++++++++   . ... .   +++++++++++++++++++++",
"+++++++++++++++++++++++++++   .... . ....   ++++++++++++++++++++",
"++++++++++++++++++++++++++ ... .... .... ... +++++++++++++++++++",
"++++++++++++++++++++++++++ .....         ..... +++++++++++++++++",
"+++++++++++++++++++++++++  ....  oXXXoXX  ... . ++++++++++++++++",
"++++++++++++++++++++++++ .. .  XXoXXXoXXXo   ... +++++++++++++++",
"++++++++++++++++++++++++ ... oXXXoXXXoXXXoXX ... +++++++++++++++",
"+++++++++++++++++++++++ ... XoXXXoXXXoXXXoXXX ..  ++++++++++++++",
"+++++++++++++++++++++++ ... XoXXXoXXXoXXXoXXX . . ++++++++++++++",
"+++++++++++++++++++++++  . XXoXXXoXXXoXXXoXXXo .. ++++++++++++++",
"++++++++++++++++++++++ .. XXXoXXXoXXXoXXXoXXXo ... +++++++++++++",
"++++++++++++++++++++++ .. XXXoXXXoXXXoXXXoXXXoX .. +++++++++++++",
"++++++++++++++++++++++ .. XXXoXXXoXXXoXXXoXXXoX .. +++++++++++++",
"++++++++++++++++++++++ .. XXXoXXXoXXXoXXXoXXXoX .. +++++++++++++",
"++++++++++++++++++++++    XXXoXXXoXXXoXXXoXXXoX    +++++++++++++",
"++++++++++++++++++++++ .. XXXoXXXoXXXoXXXoXXXoX .. +++++++++++++",
"++++++++++++++++++++++ .. XXXoXXXoXXXoXXXoXXXoX .. +++++++++++++",
"++++++++++++++++++++++ .. XXXoXXXoXXXoXXXoXXXoX .. +++++++++++++",
"++++++++++++++++++++++ .. XXXoXXXoXXXoXXXoX     .. +++++++++++++",
"++++++++++++++++++++++    XXXoXXXoXXXoXXXoX O O    +++++++++++++",
"++++++++++++++++++++++ .. XXXoXXXoXXXoXXXoX     .. +++++++++++++",
"++++++++++++++++++++++ .. XXXoXXXoXXXoXXXoXXXoX .. +++++++++++++",
"++++++++++++++++++++++ .. XXXoXXXoXXXoXXXoXXXoX .. +++++++++++++",
"++++++++++++++++++++++ .. XXXoXXXoXXXoXXXoXXXoX .. +++++++++++++",
"++++++++++++++++++++++    XXXoXXXoXXXoXXXoXXXoX    +++++++++++++",
"++++++++++++++++++++++ .. XXXoXXXoXXXoXXXoXXXoX .. +++++++++++++",
"++++++++++++++++++++++ .. XX    XoXXXoXXXoXXXoX .. +++++++++++++",
"++++++++++++++++++++++ .. XXX  XXoXXXoXXXoXXXoX .. +++++++++++++",
"++++++++++++++++++++++ .. XX oX XoXXXoXXXoXXXoX .. +++++++++++++",
"++++++++++++++++++++++    XX oX XoXXXoXXXoXXXoX    +++++++++++++",
"++++++++++++++++++++++ .. XXX  XXoXXXoXXXoXXXoX .. +++++++++++++",
"++++++++++++++++++++++ .. XXXoXXXoXXXoXXXoXXXoX .. +++++++++++++",
"++++++++++++++++++++++ .. XXXoXXXoXXXoXXXoXXXoX .. +++++++++++++",
"++++++++++++++++++++++ .. XXXoXXXoXXXoXXXoXXXoX .. +++++++++++++",
"++++++++++++++++++++++    XXXoXXXoXXXoXXXoXXXoX    +++++++++++++",
"++++++++++++++++++++++ .. XXXoXXXoXXXoXXXoXXXoX .. +++++++++++++",
"++++++++++++++++++++++ .. XXXoXXXoXXXoXXXoXXXoX .. +++++++++++++",
"++++++++++++++++++++++ .. XXXoXXXoXXXoXXXoXXXoX .. +++++++++++++",
"++++++++++++++++++++++ .. XXXoXXXoXXXoXXXoXXXoX .. +++++++++++++",
"++++++++++++++++++++++    XXXoXXXoXXXoXXXoXXXoX    +++++++++++++",
"++++++++++++++++++++++ .. XXXoXXXoXXXoXXXoX     .. +++++++++++++",
"++++++++++++++++++++++ .. XXXoXXXoXXXoXXXoX O O .. +++++++++++++",
"++++++++++++++++++++++ .. XXXoXXXoXXXoXXXoX     .. +++++++++++++",
"++++++++++++++++++++++ .. XXXoXXXoXXXoXXXoXXXoX .. +++++++++++++",
"++++++++++++++++++++++    XXXoXXXoXXXoXXXoXXXoX    +++++++++++++",
"++++++++++++++++++++++ .. XXXoXXXoXXXoXXXoXXXoX .. +++++++++++++",
"++++++++++++++++++++++ .. XXXoXXXoXXXoXXXoXXXoX .. +++++++++++++",
"++++++++++++++++++++++ .. XXXoXXXoXXXoXXXoXXXoX .. +++++++++++++",
"++++++++++++++++++++++ .. XXXoXXXoXXXoXXXoXXXoX .. +++++++++++++",
"++++++++++++++++++++++                             +++++++++++++",
};
