/* XPM */
static char *result[] = {
/* columns rows colors chars-per-pixel */
"64 64 7 1 ",
"  c black",
". c DimGray",
"X c SaddleBrown",
"o c #A37343",
"O c gray72",
"+ c #00FF00",
"* c #FF00FF",
/* pixels */
"++++++++++++++++++++++++++++++++++++++++++++++++++++++++++++++++",
"++++++++++++++++++++++++++++++++++++++++++++++++++++++++++++++++",
"++++++++++++++++++++++++++++++++++++++++++++++++++++++++++++++++",
"++++++++++++++++++++++++++++++++++++++++++++++++++++++++++++++++",
"++++++++++++++++++++++++++++++++++++++++++++++++++++++++++++++++",
"++++++++++++++++++++++++++++++++++++++++++++++++++++++++++++++++",
"++++++++++++++++++++++++++++++++++++++++++++++++++++++++++++++++",
"++++++++++++++++++++++++++++++++++++++++++++++++++++++++++++++++",
"++++++++++++++++++++++++++++++++++++++++++++++++++++++++++++++++",
"++++++++++++++++++++++++++++++++++++++++++++++++++++++++++++++++",
"++++++++++++++++++++++++++++++++++++++++++++++++++++++++++++++++",
"++++++++++++++++++++++++++++++++++++++++++++++++++++++++++++++++",
"++++++++++++++++++++++++++++++++++++++++++++++++++++++++++++++++",
"+++++++++++++++++++++++++++++++++       ++++++++++++++++++++++++",
"++++++++++++++++++++++++++++++   . ... .   +++++++++++++++++++++",
"+++++++++++++++++++++++++++   .... . ....   ++++++++++++++++++++",
"++++++++++++++++++++++++++ ... .... .... ... +++++++++++++++++++",
"++++++++++++++++++++++++++ .....         ..... +++++++++++++++++",
"+++++++++++++++++++++++++  ....  *******  ... . ++++++++++++++++",
"++++++++++++++++++++++++ .. .  ***********   ... +++++++++++++++",
"++++++++++++++++++++++++ ... *************** ... +++++++++++++++",
"+++++++++++++++++++++++ ... ***************** ..  ++++++++++++++",
"+++++++++++++++++++++++ ... ***************** . . ++++++++++++++",
"+++++++++++++++++++++++  . ******************* .. ++++++++++++++",
"++++++++++++++++++++++ .. ******************** ... +++++++++++++",
"++++++++++++++++++++++ .. ********************* .. +++++++++++++",
"++++++++++++++++++++++ .. ********************* .. +++++++++++++",
"++++++++++++++++++++++ .. ********************* .. +++++++++++++",
"++++++++++++++++++++++    *********************    +++++++++++++",
"++++++++++++++++++++++ .. ********************* .. +++++++++++++",
"++++++++++++++++++++++ .. ********************* .. +++++++++++++",
"++++++++++++++++++++++ .. ********************* .. +++++++++++++",
"++++++++++++++++++++++ .. ********************* .. +++++++++++++",
"++++++++++++++++++++++    *********************    +++++++++++++",
"++++++++++++++++++++++ .. ********************* .. +++++++++++++",
"++++++++++++++++++++++ .. ********************* .. +++++++++++++",
"++++++++++++++++++++++ .. ********************* .. +++++++++++++",
"++++++++++++++++++++++ .. ********************* .. +++++++++++++",
"++++++++++++++++++++++    *********************    +++++++++++++",
"++++++++++++++++++++++ .. ********************* .. +++++++++++++",
"++++++++++++++++++++++ .. ********************* .. +++++++++++++",
"++++++++++++++++++++++ .. ********************* .. +++++++++++++",
"++++++++++++++++++++++ .. ********************* .. +++++++++++++",
"++++++++++++++++++++++    *********************    +++++++++++++",
"++++++++++++++++++++++ .. ********************* .. +++++++++++++",
"++++++++++++++++++++++ .. ********************* .. +++++++++++++",
"++++++++++++++++++++++ .. ********************* .. +++++++++++++",
"++++++++++++++++++++++ .. ********************* .. +++++++++++++",
"++++++++++++++++++++++    *********************    +++++++++++++",
"++++++++++++++++++++++ .. ********************* .. +++++++++++++",
"++++++++++++++++++++++ .. ********************* .. +++++++++++++",
"++++++++++++++++++++++ .. ********************* .. +++++++++++++",
"++++++++++++++++++++++ .. ********************* .. +++++++++++++",
"++++++++++++++++++++++    *********************    +++++++++++++",
"++++++++++++++++++++++ .. ********************* .. +++++++++++++",
"++++++++++++++++++++++ .. ********************* .. +++++++++++++",
"++++++++++++++++++++++ .. ********************* .. +++++++++++++",
"++++++++++++++++++++++ .. ********************* .. +++++++++++++",
"++++++++++++++++++++++    *********************    +++++++++++++",
"++++++++++++++++++++++ .. ********************* .. +++++++++++++",
"++++++++++++++++++++++ .. ********************* .. +++++++++++++",
"++++++++++++++++++++++ .. ********************* .. +++++++++++++",
"++++++++++++++++++++++ .. ********************* .. +++++++++++++",
"++++++++++++++++++++++                             +++++++++++++",
};
