/* XPM */
static char * open30_2_xpm[] = {
"64 64 2 1",
". 	c #FF00FF",
"+	c #00FFFF",
"................................................................",
"................................................................",
"................................................................",
"................................................................",
"................................................................",
"................................................................",
"................................................................",
"................................................................",
"................................................................",
"................................................................",
"................................................................",
"....................++++++++++++++++++++++++....................",
"....................++++++++++++++++++++++++....................",
"....................++++++++++++++++++++++++....................",
"....................++++++++++++++++++++++++....................",
"....................++++++++++++++++++++++++....................",
"....................++++++++++++++++++++++++....................",
"....................++++++++++++++++++++++++....................",
"....................++++++++++++++++++++++++....................",
"....................++++++++++++++++++++++++....................",
"....................++++++++++++++++++++++++....................",
"....................++++++++++++++++++++++++....................",
"....................++++++++++++++++++++++++....................",
"....................++++++++++++++++++++++++....................",
"....................++++++++++++++++++++++++....................",
"....................++++++++++++++++++++++++....................",
"....................++++++++++++++++++++++++....................",
"....................++++++++++++++++++++++++....................",
"....................++++++++++++++++++++++++....................",
"....................++++++++++++++++++++++++....................",
"....................++++++++++++++++++++++++....................",
"....................++++++++++++++++++++++++....................",
"....................++++++++++++++++++++++++....................",
"....................++++++++++++++++++++++++....................",
"....................++++++++++++++++++++++++....................",
"....................++++++++++++++++++++++++....................",
"....................++++++++++++++++++++++++....................",
"....................++++++++++++++++++++++++....................",
"....................++++++++++++++++++++++++....................",
"....................++++++++++++++++++++++++....................",
"....................++++++++++++++++++++++++....................",
"....................++++++++++++++++++++++++....................",
"....................++++++++++++++++++++++++....................",
"....................++++++++++++++++++++++++....................",
"....................++++++++++++++++++++++++....................",
"....................++++++++++++++++++++++++....................",
"....................++++++++++++++++++++++++....................",
"....................++++++++++++++++++++++++....................",
"....................++++++++++++++++++++++++....................",
"....................++++++++++++++++++++++++....................",
"....................++++++++++++++++++++++++....................",
"....................++++++++++++++++++++++++....................",
"....................++++++++++++++++++++++++....................",
"....................++++++++++++++++++++++++....................",
"....................++++++++++++++++++++++++....................",
"....................++++++++++++++++++++++++....................",
"....................++++++++++++++++++++++++....................",
"....................++++++++++++++++++++++++....................",
"....................++++++++++++++++++++++++....................",
"....................++++++++++++++++++++++++....................",
"....................++++++++++++++++++++++++....................",
"....................++++++++++++++++++++++++....................",
"....................++++++++++++++++++++++++....................",
"....................++++++++++++++++++++++++....................",
"};
Footer

